<!-- <?xml version="1.0" encoding="UTF-8" standalone="no"?>
<!DOCTYPE svg PUBLIC "-//W3C//DTD SVG 1.1//EN" "http://www.w3.org/Graphics/SVG/1.1/DTD/svg11.dtd"> -->
<svg version="1.1" xmlns:xl="http://www.w3.org/1999/xlink" xmlns="http://www.w3.org/2000/svg" xmlns:dc="http://purl.org/dc/elements/1.1/" viewBox="-1637 -715 500 500" width="500" height="500">
  <defs/>
  <metadata> Produced by OmniGraffle 7.18\n2021-02-06 19:51:57 +0000</metadata>
  <g id="Canvas_2" stroke-opacity="1" stroke="none" stroke-dasharray="none" fill-opacity="1" fill="none">
    <title>Canvas 2</title>
    <g id="Canvas_2_Layer_1">
      <title>Layer 1</title>
      <g id="Graphic_13">
        <path d="M -1560.1429 -532.8271 L -1503.5235 -532.8271 C -1485.193 -532.8271 -1470.3332 -517.9673 -1470.3332 -499.6368 C -1470.3332 -481.3063 -1485.193 -466.4465 -1503.5235 -466.4465 L -1560.1429 -466.4465 C -1578.4734 -466.4465 -1593.3332 -481.3063 -1593.3332 -499.6368 C -1593.3332 -517.9673 -1578.4734 -532.8271 -1560.1429 -532.8271 Z M -1270.4765 -532.8271 L -1213.8571 -532.8271 C -1195.5266 -532.8271 -1180.6668 -517.9673 -1180.6668 -499.6368 C -1180.6668 -481.3063 -1195.5266 -466.4465 -1213.8571 -466.4465 L -1270.4765 -466.4465 C -1288.807 -466.4465 -1303.6668 -481.3063 -1303.6668 -499.6368 C -1303.6668 -517.9673 -1288.807 -532.8271 -1270.4765 -532.8271 Z M -1418.2498 -468.9403 L -1355.7498 -468.9403 C -1355.7498 -460.94274 -1358.8008 -452.9452 -1364.9027 -446.84324 C -1377.1066 -434.6393 -1396.893 -434.6393 -1409.0969 -446.84324 C -1415.1988 -452.9452 -1418.2498 -460.94274 -1418.2498 -468.9403 Z M -1581.4444 -215.38145 L -1581.4444 -406 L -1525.8888 -406 L -1525.8888 -215 L -1470.3332 -215 L -1470.3332 -406 L -1414.7776 -406 L -1414.7776 -215 L -1359.222 -215 L -1359.222 -406 L -1303.6664 -406 L -1303.6664 -215 L -1248.1108 -215 L -1248.1108 -406 L -1192.5552 -406 L -1192.5552 -215.3815 C -1161.3057 -218.83612 -1137 -245.3296 -1137 -277.5 L -1137 -652.5 C -1137 -687.0178 -1164.9822 -715 -1199.5 -715 L -1574.5 -715 C -1609.0178 -715 -1637 -687.0178 -1637 -652.5 L -1637 -277.5 C -1637 -245.32947 -1612.694 -218.8359 -1581.4444 -215.38145 Z" fill="#76a4e6"/>
      </g>
    </g>
  </g>
</svg>
